<?xml version="1.0" encoding="UTF-8"?>
<svg id="Layer_1" data-name="Layer 1" xmlns="http://www.w3.org/2000/svg" viewBox="0 0 186.16 176.92">
  <defs>
    <style>
      .cls-1 {
        fill: #083064;
      }
    </style>
  </defs>
  <g>
    <path class="cls-1" d="M40.81,81.63c1.26,0,2.32-.98,2.4-2.24,1.16-17.91,16.1-32.13,34.3-32.13s33.14,14.22,34.3,32.13c.08,1.26,1.14,2.24,2.4,2.24,1.4,0,2.52-1.19,2.42-2.59-1.34-20.42-18.37-36.62-39.13-36.62s-37.79,16.2-39.13,36.62c-.09,1.4,1.02,2.59,2.42,2.59Z"/>
    <path class="cls-1" d="M62.14,124.35c1.14-.82,1.36-2.44.46-3.53h0c-.81-.97-2.23-1.16-3.25-.42-5.91,4.28-13.19,6.61-20.73,6.61-18.62,0-33.77-14.08-33.77-31.38,0-15.97,12.87-29.28,29.69-31.15,1.25-.14,2.17-1.25,2.11-2.51-.07-1.4-1.31-2.45-2.71-2.29C14.71,61.84,0,77.19,0,95.63c0,19.97,17.32,36.22,38.61,36.22,8.55,0,16.8-2.65,23.53-7.5Z"/>
    <path class="cls-1" d="M120.78,59.67c-1.39-.16-2.64.89-2.71,2.29-.06,1.26.85,2.37,2.11,2.51,16.82,1.88,29.69,15.18,29.69,31.15,0,5.97-1.78,11.69-5.16,16.69-.71,1.04-.48,2.46.51,3.23h0c1.1.87,2.72.62,3.5-.54,3.92-5.79,5.99-12.44,5.99-19.39,0-18.43-14.71-33.78-33.93-35.96Z"/>
    <path class="cls-1" d="M141.7,119.39c-.87-.92-2.3-1.02-3.28-.22-6.17,5.07-14.01,7.83-22.32,7.83-7.54,0-14.82-2.33-20.73-6.61-1.02-.74-2.45-.55-3.25.42-.9,1.08-.69,2.7.46,3.53,6.73,4.85,14.98,7.5,23.53,7.5,9.43,0,18.34-3.15,25.37-8.91,1.09-.89,1.2-2.52.23-3.54h0Z"/>
    <path class="cls-1" d="M54.38,139.34v6.91c0,1.34,1.08,2.42,2.42,2.42s2.42-1.08,2.42-2.42v-6.91c0-1.34-1.08-2.42-2.42-2.42s-2.42,1.08-2.42,2.42Z"/>
    <path class="cls-1" d="M100.58,146.26v-6.91c0-1.34-1.08-2.42-2.42-2.42s-2.42,1.08-2.42,2.42v6.91c0,1.34,1.08,2.42,2.42,2.42s2.42-1.08,2.42-2.42Z"/>
    <path class="cls-1" d="M75.06,134.38v11.47c0,1.34,1.08,2.42,2.42,2.42s2.42-1.08,2.42-2.42v-11.47c0-1.34-1.08-2.42-2.42-2.42s-2.42,1.08-2.42,2.42Z"/>
    <path class="cls-1" d="M118.84,136.92c-1.34,0-2.42,1.08-2.42,2.42v20.14c-8.62-4.44-26.88-5.79-38.94-5.79s-30.32,1.35-38.94,5.79v-20.14c0-1.34-1.08-2.42-2.42-2.42s-2.42,1.08-2.42,2.42v25.93s0,.01,0,.02c0,0,0,.01,0,.02,0,9.17,27.52,11.61,43.78,11.61s43.78-2.45,43.78-11.61c0,0,0-.01,0-.02,0,0,0-.01,0-.02v-25.93c0-1.34-1.08-2.42-2.42-2.42ZM77.48,172.08c-23.76,0-37.82-4.36-38.92-6.77,1.1-2.41,15.17-6.77,38.92-6.77s37.82,4.36,38.92,6.77c-1.1,2.41-15.17,6.77-38.92,6.77Z"/>
  </g>
  <path class="cls-1" d="M185.05,13.47c-.14-.41-.3-.83-.48-1.23h0s-.01-.03-.01-.04c-.1-.21-.19-.41-.29-.61-.04-.08-.08-.17-.12-.25-.12-.26-.26-.5-.4-.73-.04-.1-.1-.18-.15-.26-.11-.22-.25-.41-.37-.61-.07-.1-.12-.21-.21-.3-3.84-5.82-10.79-9.43-18.2-9.43-8.09,0-15.57,4.31-19.14,11.01-.06.08-.11.18-.15.28-.47.9-.89,1.88-1.22,2.95,0,.01-.01.04-.01.06-.54,1.74-.82,3.55-.82,5.41,0,1.18.11,2.38.35,3.55,0,.03.01.06.01.08.25,1.19.61,2.35,1.08,3.44.03.07.06.14.08.21,3.22,7.43,11.16,12.38,19.82,12.38,11.77,0,21.35-8.82,21.35-19.67,0-2.13-.37-4.23-1.11-6.22ZM179.03,28.94c-.25.04-.5.08-.75.1-.24.03-.48.04-.72.04-3.21.12-6.51-1.13-8.63-3.47-.04-.1.1-.18.14-.08,2.28,2.23,6.02,3.22,9.24,2.66.26-.04.51-.1.77-.17.28-.08.55-.17.83-.28-.26.41-.55.82-.89,1.2ZM182.09,21.82l-.4-.19c-.17-.08-.33-.15-.5-.22-1.2-.53-2.48-.83-3.78-.94h-.26s-.32-.04-.32-.04c-.33-.01-.66-.01-1.01,0l-.32.03h-.29c-1.59.14-4.07.79-5.31,1.81-.44.36-.41.55-.76.95-.46.5-.91.82-1.55,1.06-.19.08-.46.08-.68.1h-.24s-1.16.03-1.16.03l-.18-.03h-.72s-.4-.03-.4-.03h-.29s-.3-.03-.3-.03h-.3s-.24-.03-.24-.03h-.3s-.37-.04-.37-.04h-.36s-.36-.04-.36-.04h-.36s-.33-.04-.33-.04h-.33s-.35-.04-.35-.04h-.32s-.33-.04-.33-.04h-.29s-.35-.04-.35-.04h-.29s-.33-.04-.33-.04h-.3s-.33-.04-.33-.04h-.33s-.3-.04-.3-.04l-.33-.03h-.3s-.33-.04-.33-.04h-.32s-.29-.04-.29-.04h-.33s-.35-.04-.35-.04h-.29s-.36-.04-.36-.04h-.33s-.35-.04-.35-.04h-.33s-.35-.04-.35-.04h-.35s-.36-.04-.36-.04h-.36s-.39-.04-.39-.04h-.37s-.36-.04-.36-.04h-.29s-.26-.03-.26-.03h-.25s-.33-.03-.33-.03h-.3s-.25-.03-.25-.03h-.37s-.32-.03-.32-.03h-.03c-.11,0-.21,0-.32-.01-.07-.01-.15,0-.22,0-.32-1.2-.48-2.46-.48-3.71,0-1.84.35-3.62,1.02-5.32h.55s.06-.01.06-.01h.08s.44-.01.44-.01h.19s.46-.03.46-.03h.29s.29-.03.29-.03h.33s.55-.04.55-.04h.29s.24-.03.24-.03h.24l.29-.03h.5s.35-.04.35-.04h.36s.33-.04.33-.04h.35s.35-.04.35-.04l.66-.03.3-.03h.33s.32-.04.32-.04h.33s.32-.03.32-.03l.33-.03h.32s.33-.04.33-.04h.33s.33-.04.33-.04l.66-.03.35-.03h.36s.33-.04.33-.04h.28s.24-.01.24-.01h.24s.32-.03.32-.03h.26s.28-.03.28-.03h.36c.1-.01.21-.03.3-.03h.32s.57-.03.57-.03h.18s1.99-.01,1.99-.01l.22.03h.25l.26.03c.21.01.61.07.79.15.32.14.59.32.84.53.06.04.11.08.15.12l.12.15c.33.36.47.86.8,1.22.41.47.87.65,1.47.8.14.04.26.01.4.01l.55-.03h.24s.3-.03.3-.03h.24s.55-.04.55-.04h.28s.24-.01.24-.01h.33s.24-.03.24-.03h.24s.33-.03.33-.03h.24s.24-.03.24-.03h.33s.47-.04.47-.04h.33s.47-.04.47-.04h.33s.24-.03.24-.03h.28s.55-.04.55-.04h.54s.24-.03.24-.03l.55-.03h.28s.24-.03.24-.03h.33s.24-.03.24-.03h.24s.12-.01.12-.01h.21s.24-.03.24-.03h.24s.33-.03.33-.03h.06c.3,1.16.46,2.36.46,3.58,0,.71-.06,1.38-.15,2.01-.01.06-.01.11-.03.17-.03-.01-.06-.03-.08-.04ZM177.64,10.39h1.37c.17.19.32.4.46.61.07.1.14.19.21.29h-1.29s-.03-.01-.03-.01h-1.38s-.17-.03-.17-.03h-4.29c-.37-.06-.75.01-1.12-.03-.19-.03-.33-.29-.29-.47.03-.12.15-.33.29-.33h4.61s.1-.03.1-.03h1.54ZM171.91,12.46h.08s3.44-.03,3.44-.03h.1s.68-.01.68-.01h.17s.53-.01.53-.01l.17-.03h.76s.69-.01.69-.01l.1-.03h.76s.35-.01.35-.01h.41s.19-.01.19-.01c.12.21.25.44.37.68.04.08.08.15.11.24h-1.09s-.08-.01-.08-.01h-1.29l-.08-.03h-1.55s-1.36-.01-1.36-.01h-2.93s-1.04-.03-1.04-.03c-.18,0-.32-.22-.29-.39.07-.43.62-.26.8-.29ZM171.22,14.49c.06-.06.11-.11.21-.11h.57l.1-.03h3.53s.68-.01.68-.01h.08s.68-.03.68-.03h.17s.62-.01.62-.01h.08s.68-.01.68-.01l.08-.03h.77s.69-.01.69-.01l.07-.03h.86s.18-.01.18-.01c.1.24.19.47.28.72l.04.14s.01.03.01.04h-2.66s-2.9-.01-2.9-.01l-.08-.03h-4.56c-.08,0-.17-.1-.21-.14-.11-.12-.1-.32.04-.43ZM150.28,10.79c3.28-4.37,8.71-6.98,14.52-6.98,4.9,0,9.43,1.78,12.78,5.03.14.12.28.25.41.4-.1,0-.19-.01-.29-.01-.11,0-.21-.01-.3-.01h-.4c-.1-.01-.21-.03-.3-.03s-.18,0-.28-.01h-.43c-.11-.01-.21-.01-.32-.01-.11-.01-.21-.01-.32-.01h-.39c-.11-.03-.21-.03-.32-.03-.1,0-.21-.01-.3-.01h-.41c-.11-.01-.21-.03-.32-.03s-.21-.01-.3-.01h-.4c-.1-.01-.21-.03-.3-.03-.11,0-.21-.01-.32-.01h-.39c-.11-.01-.21-.01-.32-.03h-.32s-.39-.01-.39-.01c-.08-.01-.18-.03-.28-.03-.33.04-.66.14-.95.29-.21.11-.39.25-.54.41-.4.43-.44.91-.82,1.4-.28.33-.64.54-1.04.71-.21.08-.44.12-.66.14l-.19.03c-.08,0-.15,0-.24.01h-.21s-1.6.01-1.6.01h-.17s-.44-.01-.44-.01h-.17s-.39-.03-.39-.03h-.25s-.26-.03-.26-.03h-.28s-.33-.03-.33-.03l-.36-.03h-.33s-.32-.04-.32-.04h-.33s-.28-.03-.28-.03l-.3-.03h-.29s-.28-.04-.28-.04h-.32s-.25-.03-.25-.03l-.32-.03h-.28s-.28-.04-.28-.04h-.26s-.28-.04-.28-.04h-.28s-.28-.03-.28-.03l-.28-.03h-.28s-.25-.04-.25-.04h-.32s-.26-.04-.26-.04h-.28s-.26-.03-.26-.03l-.3-.03h-.28s-.28-.04-.28-.04h-.32s-.28-.03-.28-.03l-.3-.03h-.28s-.32-.04-.32-.04h-.3s-.33-.04-.33-.04h-.35s-.33-.03-.33-.03h-.12s-.17-.03-.17-.03h-.47s-.25-.03-.25-.03h-.24s-.12-.01-.12-.01c.06-.1.12-.19.19-.29ZM177.79,30.36c-3.32,3.31-8.05,5.2-12.99,5.2-6.56,0-12.52-3.26-15.53-8.52-.04-.08-.08-.15-.12-.24h.32s.25-.03.25-.03h.14l.37-.03h.36s.36-.04.36-.04h.35s.35-.04.35-.04h.32s.35-.04.35-.04l.33-.03h.29s.35-.04.35-.04h.29s.33-.04.33-.04h.3s.33-.04.33-.04h.3s.29-.04.29-.04h.33s.3-.04.3-.04h.29s.33-.04.33-.04h.28s.33-.04.33-.04h.3s.32-.04.32-.04h.29s.33-.04.33-.04h.3s.33-.04.33-.04h.29s.35-.04.35-.04l.33-.03h.29s.36-.04.36-.04h.36s.33-.04.33-.04h.39s.33-.04.33-.04h.3s.5-.04.5-.04h.35s.3-.03.3-.03h.3s.48-.01.48-.01l.08-.03h.97s.77-.01.77-.01h.1c.14.04.32.01.47.03h.26c.17.03.57.08.72.14.43.19.8.47,1.15.77.37.32.65.68.91,1.08.07.11.19.22.29.3,1.27,1.04,3.64,1.67,5.26,1.81l.25.03.29.03h.61s.01.01.03.01h.04s.15-.01.26-.01h.01c.12,0,.24,0,.33-.01h.25s.22-.04.22-.04h.04c.24-.01.48-.06.75-.1-.11.15-.26.3-.41.46Z"/>
</svg>