<?xml version="1.0" encoding="UTF-8"?>
<svg id="Layer_1" data-name="Layer 1" xmlns="http://www.w3.org/2000/svg" viewBox="0 0 186.16 176.92">
  <defs>
    <style>
      .cls-1 {
        fill: #152552;
      }
    </style>
  </defs>
  <polygon class="cls-1" points="106.78 80.5 106.08 91.15 100.16 89.8 106.78 80.5"/>
  <path class="cls-1" d="M135.2,108.26c-.07,3.91-.37,7.7-2.2,11.13-.7,1.29-2.01,3.01-3.72,2.45-1.16-.39-2.06-1.97-2.87-2.89l-4.67,19.49c-.26.6-1.48,1.5-2.18,2.04l-20.86,15.64c-3.17,2.38-6.1,2.75-9.41.37l-22.92-16.37c-.93-.67-1.71-1.71-1.96-2.77l-4.19-18.29c-.88,1.09-1.83,2.5-3.03,2.98-1.46.56-2.82-.86-3.47-2.06-2.1-3.82-2.61-8.05-2.47-12.51.04-.63.9-1.41,1.59-1.57l36.28-8.42,4.72.26c1.36.09,2.87-.37,4.14-.09l15.35,3.58,20.17,4.69c1.16.28,1.73,1.18,1.71,2.33Z"/>
  <path class="cls-1" d="M148.06,70.68c-2.84,3.45-6.34,5.97-10.83,7.28-.63-3.81-1.6-7.29-4.14-10.36l.33,31.54-21.18-5.73,4.37-32.73c-.07-.6-.33-1.41-.69-1.62-.35-.19-1.25.21-1.55.6l-17.58,24.01-4.39,5.78-19.04-27.47-1.76-2.38c-.18-.25-.79-.51-1.07-.48-.33.04-.92.81-.83,1.34l5.04,32.84-21.79,5.76.19-19.19.23-12.51c-2.47,3.1-3.82,6.61-4.28,10.62-11.1-3.17-17.86-14.5-15.06-25.62,3.33-13.34,18.08-20.24,30.48-14.68,4.55,2.24,7.96,5.41,11.56,9.2-1.53-5.32-5.27-9.37-10.18-11.75,5.11-9.78,15.08-16.19,26.25-16.33,11.89-.16,22.5,5.73,28.15,16.19l-3.73,2.5c-3.37,2.26-5.32,5.83-6.78,9.62,2.61-2.57,4.93-5.02,7.86-7.12,9.57-6.82,22.48-5.34,30.06,3.61,6.59,7.79,6.87,19.15.39,27.06Z"/>
</svg>