<?xml version="1.0" encoding="UTF-8"?>
<svg id="Layer_1" data-name="Layer 1" xmlns="http://www.w3.org/2000/svg" viewBox="0 0 186.16 176.92">
  <defs>
    <style>
      .cls-1 {
        fill: #fff;
      }
    </style>
  </defs>
  <path class="cls-1" d="M140.29,118H50.55c-1.68,0-2.9-1.46-2.9-3.08V33.32c0-1.57,1.36-2.78,2.87-2.78h89.68c1.55,0,2.96,1.08,2.96,2.74v81.64c0,1.73-1.01,2.94-2.88,3.08ZM97.52,70.61l9.98-13.63c.16-.22.68-.45.88-.34s.35.58.39.92l-2.48,18.58,12.02,3.25-.19-17.9c1.44,1.73,1.99,3.72,2.35,5.88,2.54-.75,4.54-2.17,6.15-4.13,3.68-4.49,3.52-10.94-.22-15.36-4.3-5.08-11.63-5.92-17.06-2.04-1.66,1.19-2.99,2.57-4.46,4.04.83-2.15,1.94-4.18,3.85-5.46l2.12-1.42c-3.21-5.94-9.23-9.28-15.98-9.19-6.33.08-12,3.72-14.9,9.27,2.8,1.36,4.92,3.65,5.79,6.67-2.05-2.15-3.99-3.94-6.56-5.22-7.04-3.16-15.41.76-17.31,8.33-1.58,6.32,2.25,12.74,8.55,14.55.26-2.28,1.04-4.28,2.43-6.03l-.13,7.1-.11,10.89,12.37-3.27-2.86-18.63c-.05-.3.28-.74.47-.77.16-.02.51.13.61.28l.99,1.34,10.81,15.6,2.5-3.28ZM102.79,74.85l.4-6.04-3.76,5.28,3.36.77ZM110.44,102.85c.41-.31,1.09-.82,1.25-1.16l2.65-11.06c.46.52.97,1.43,1.63,1.65.96.32,1.71-.66,2.1-1.4,1.05-1.95,1.21-4.1,1.25-6.31.01-.65-.3-1.17-.97-1.32l-11.44-2.66-8.72-2.02c-.71-.17-1.57.09-2.35.05l-2.68-.16-20.58,4.78c-.39.09-.89.53-.9.89-.08,2.53.21,4.93,1.4,7.1.37.67,1.14,1.49,1.97,1.16.67-.27,1.21-1.07,1.72-1.69l2.38,10.38c.14.6.58,1.2,1.1,1.57l13.02,9.29c1.88,1.34,3.54,1.14,5.34-.21l11.84-8.88Z"/>
  <path class="cls-1" d="M56.4,146l-.83-11.11-4.69,8.62-2.15.03-4.76-8.85-.82,11.33-3.17-.03,1.2-16.34h3.19s5.59,10.25,5.59,10.25l5.42-10.2c.93-.1,1.94-.09,2.97-.03l1.39,16.31-3.34.02Z"/>
  <path class="cls-1" d="M123.58,146.03l-.02-6.76c0-1.24-.95-2.18-2.18-2.19s-2.34.57-3.26,1.51v7.43s-3.27,0-3.27,0l-.02-6.57.04-10.34,3.23-.02.03,7.51c1.94-1.75,4.34-2.26,6.59-1.35,1.41.57,2.25,1.89,2.25,3.41v7.34s-3.39.01-3.39.01Z"/>
  <path class="cls-1" d="M105.39,143.94c2.27.43,4.39-.05,6.52-.9.29.71.49,1.38.63,2.21-3.34,1.39-7.11,1.48-10.46.31-3.4-1.19-5.24-4.11-5.24-7.57s1.58-6.02,4.65-7.5c3.41-1.64,7.38-1.54,10.96.08l-.69,2.3c-2.46-1.04-4.88-1.46-7.28-.68-2.69.87-4.19,3.15-4.06,5.94s1.95,5.25,4.97,5.81Z"/>
  <path class="cls-1" d="M71.8,145.55c-2.22.98-4.69,1.04-6.87.2-1.98-.76-3.21-2.38-3.47-4.46-.32-2.51.89-4.84,3.3-5.83,2.07-.85,4.49-.82,6.6-.1,2.42.83,3.65,2.95,3.55,5.44-.08,2.09-1.06,3.85-3.1,4.75ZM67.98,144.3c2.11.13,3.51-1.33,3.55-3.32.02-.97-.02-2-.64-2.8-1.27-1.63-3.85-1.76-5.28-.27-.87.91-.85,2.29-.72,3.45.18,1.68,1.34,2.83,3.1,2.94Z"/>
  <path class="cls-1" d="M83.93,137.13c-1.27-.2-2.75.42-3.43,1.46l-.07,7.43-3.35.03-.03-10.93,2.59.03.58,1.36c1.41-1.29,3.28-1.83,5.26-1.62,2.1.21,3.8,1.81,3.82,4.01l.05,7.12-3.45.04-.07-6.89c-.01-1.04-.81-1.87-1.9-2.03Z"/>
  <path class="cls-1" d="M134.89,144.13c1.81.39,3.3-.04,5.04-.76.23.68.41,1.3.57,2.03-3.26,1.32-8.05,1.52-10.41-1.38-1.35-1.65-1.46-3.94-.56-5.91,1.65-3.61,7.38-4.27,10.14-1.72,1.36,1.26,1.62,3.2,1.16,4.95l-8.52-.02c.02,1.46,1.09,2.49,2.57,2.82ZM138,139.5c.11-1.88-1.26-2.69-2.73-2.7-1.66-.02-2.99,1.11-3.01,2.73l5.74-.02Z"/>
  <path class="cls-1" d="M147.78,137.16l-.06,8.87h-3.29s-.04-8.8-.04-8.8l-1.95-.08-.06-1.71,1.96-.07.09-2.24c.07-1.64,1.23-2.99,2.77-3.52,1.64-.57,3.26-.4,4.92.33l-.42,1.87c-.83-.24-1.46-.44-2.27-.41s-1.63.77-1.64,1.58l-.03,2.37,3.36.05.02,1.78h-3.38Z"/>
</svg>